#N canvas 273 173 1081 714 12;
#X obj 273 380 netsend;
#X obj 482 127 list append;
#X msg 469 90 send;
#X obj 482 153 list trim;
#X obj 145 25 tgl 15 0 empty empty Connect 17 7 0 10 #fcfcfc #000000
#000000 0 1;
#X msg 84 220 connect \$1 \$2;
#X msg 283 161 send close \, disconnect;
#X obj 134 116 select 1;
#X obj 214 137 bng 15 250 50 0 empty empty empty 17 7 0 10 #fcfcfc
#000000 #000000;
#X obj 84 176 list append \$1 \$2;
#X obj 215 26 bng 15 250 50 0 empty empty empty 17 7 0 10 #fcfcfc #000000
#000000;
#X obj 247 438 0;
#X obj 247 477 select 0;
#X obj 456 43 trigger bang anything;
#X obj 208 -91 select 1;
#X obj 208 -154 loadbang;
#X obj 207 -59 metro 1000;
#X obj 206 -28 1;
#X text 305 -58 retry every sec;
#X obj 353 5 spigot;
#X text 306 -126 autoconnect argument;
#X obj 392 -25 != 1;
#X text -115 175 retrieve subpath arguments;
#X obj 208 -125 \$4;
#X text -195 346 initial message to inform about receive port;
#X obj 120 269 trigger bang anything;
#X obj 456 8 receive fc_input;
#X obj 367 421 send fc_output;
#X obj 120 306 list append \$3;
#X msg 124 345 send initrcv \$1;
#X obj 367 381 netreceive \$3;
#X connect 0 0 11 0;
#X connect 1 0 3 0;
#X connect 2 0 1 0;
#X connect 3 0 0 0;
#X connect 4 0 7 0;
#X connect 5 0 25 0;
#X connect 6 0 0 0;
#X connect 7 0 10 0;
#X connect 7 1 8 0;
#X connect 8 0 6 0;
#X connect 9 0 5 0;
#X connect 10 0 9 0;
#X connect 10 0 11 0;
#X connect 11 0 12 0;
#X connect 11 0 21 0;
#X connect 12 0 4 0;
#X connect 13 0 2 0;
#X connect 13 1 1 1;
#X connect 14 0 16 0;
#X connect 15 0 23 0;
#X connect 16 0 17 0;
#X connect 17 0 19 0;
#X connect 19 0 4 0;
#X connect 21 0 19 1;
#X connect 23 0 14 0;
#X connect 25 0 28 0;
#X connect 25 1 0 0;
#X connect 26 0 13 0;
#X connect 28 0 29 0;
#X connect 29 0 0 0;
#X connect 30 0 27 0;
#X coords 0 -1 1 1 221 43 1 110 4;
