#N canvas 162 387 450 300 12;
#X obj 113 74 inlet;
#X obj 118 209 outlet;
#X obj 113 120 route VECTOR;
#X msg 194 166 0;
#X msg 113 164 1;
#X connect 0 0 2 0;
#X connect 2 0 4 0;
#X connect 2 1 3 0;
#X connect 3 0 1 0;
#X connect 4 0 1 0;
