#N canvas 383 484 450 300 12;
#X obj 105 36 list prepend \$0;
#X obj 105 11 inlet;
#X obj 105 61 list trim;
#X obj 105 86 s fc_input;
#X obj 105 136 r fc_output;
#X obj 105 161 route \$0;
#X obj 105 186 outlet;
#X text 105 111 FreeCAD pdserver is here !;
#X connect 0 0 2 0;
#X connect 1 0 0 0;
#X connect 2 0 3 0;
#X connect 4 0 5 0;
#X connect 5 0 6 0;
