#N canvas 68 49 840 898 12;
#X declare -path ../Pure-Data;
#X text 80 22 where to find fc_ objects;
#X obj 488 176 fc_process;
#X msg 488 149 get selection;
#X obj 268 45 fc_client localhost 8888 8889 0;
#X obj 488 203 list split 1;
#X obj 488 230 fc_getObjectProperty Placement;
#X obj 488 284 fc_vectorXYZ;
#X floatatom 488 311 5 0 0 0 - - -, f 5;
#X floatatom 532 311 5 0 0 0 - - -, f 5;
#X floatatom 580 311 5 0 0 0 - - -, f 5;
#X obj 301 425 * 2;
#X msg 301 451 \$1 1000;
#X obj 524 598 fc_vector;
#X floatatom 508 563 5 0 0 0 - - -, f 5;
#X obj 186 525 ==;
#X obj 186 548 select 1;
#X msg 177 624 \$1 1000;
#X obj 524 664 fc_setObjectProperty Placement;
#X floatatom 177 596 5 0 0 0 - - -, f 5;
#X msg 99 548 set \$1;
#X obj 301 399 t f f;
#X obj 267 22 declare -path ../Pure-Data;
#X obj 273 360 spigot;
#X obj 312 332 != 0;
#X obj 300 488 line 0 100;
#X obj 487 106 bng 15 250 50 0 empty empty Launch\ animation 17 7 0
10 #fcfcfc #000000 #000000;
#X text 300 229 Placement of the object;
#X text 300 255 Position from Placement;
#X text 301 283 Decompose vector;
#X text 300 203 First selection list item;
#X obj 488 257 fc_PlacementPosRot;
#X obj 524 631 fc_setPlacementPos;
#X text 116 352 only animate if X!=0;
#X text 86 398 trigger 2 float \, right first;
#X text 453 563 new X;
#X text 442 595 new Pos;
#X text 396 630 update Placement;
#X text 256 537 when X = 2*X0;
#X text 100 595 store X0;
#X text 48 624 go to X0 in 1sec;
#X text 379 486 rampe object \; initialized with 100ms step;
#X text 321 663 set new Placement to object;
#X text 369 433 go to 2*X0 in 1sec \; (\$1 is incomming float);
#X text 613 279 Rotation is not used;
#X connect 1 0 4 0;
#X connect 2 0 1 0;
#X connect 4 0 5 0;
#X connect 4 0 17 1;
#X connect 5 0 30 0;
#X connect 5 0 31 1;
#X connect 6 0 7 0;
#X connect 6 1 8 0;
#X connect 6 2 9 0;
#X connect 7 0 23 0;
#X connect 7 0 22 0;
#X connect 7 0 19 0;
#X connect 8 0 12 1;
#X connect 9 0 12 2;
#X connect 10 0 11 0;
#X connect 10 0 14 1;
#X connect 11 0 24 0;
#X connect 12 0 31 0;
#X connect 13 0 12 0;
#X connect 14 0 15 0;
#X connect 15 0 18 0;
#X connect 16 0 24 0;
#X connect 18 0 16 0;
#X connect 19 0 18 0;
#X connect 20 0 10 0;
#X connect 20 1 24 0;
#X connect 22 0 20 0;
#X connect 23 0 22 1;
#X connect 24 0 14 0;
#X connect 24 0 13 0;
#X connect 25 0 2 0;
#X connect 30 0 6 0;
#X connect 31 0 17 0;
