#N canvas 5 149 767 713 12;
#X declare -path ../Pure-Data;
#X text 80 22 where to find fc_ objects;
#X obj 488 176 fc_process;
#X msg 488 149 get selection;
#X obj 83 59 fc_client localhost 8888 8889 0;
#X obj 488 203 list split 1;
#X obj 488 230 fc_getObjectProperty Placement;
#X obj 488 284 fc_vectorXYZ;
#X floatatom 488 311 5 0 0 0 - - -, f 5;
#X floatatom 532 311 5 0 0 0 - - -, f 5;
#X floatatom 580 311 5 0 0 0 - - -, f 5;
#X obj 301 425 * 2;
#X msg 301 451 \$1 1000;
#X obj 524 598 fc_vector;
#X floatatom 508 563 5 0 0 0 - - -, f 5;
#X obj 524 664 fc_setObjectProperty Placement;
#X obj 301 399 t f f;
#X obj 267 22 declare -path ../Pure-Data;
#X obj 301 372 spigot;
#X obj 340 344 != 0;
#X obj 487 106 bng 15 250 50 0 empty empty Launch\ animation 17 7 0
10 #fcfcfc #000000 #000000;
#X text 300 229 Placement of the object;
#X text 300 255 Position from Placement;
#X text 301 283 Decompose vector;
#X text 300 203 First selection list item;
#X obj 488 257 fc_PlacementPosRot;
#X obj 524 631 fc_setPlacementPos;
#X text 144 364 only animate if X!=0;
#X text 453 563 new X;
#X text 442 595 new Pos;
#X text 396 630 update Placement;
#X text 321 663 set new Placement to object;
#X text 119 425 go to 2*X0 in 1sec \; (\$1 is incoming float);
#X text 613 279 Rotation is not used;
#X text 128 498 rampe object \; initialized with 50ms step;
#X obj 425 398 pipe 1000;
#X text 421 372 wait 1 sec;
#X msg 424 450 \$1 1000;
#X text 430 424 go back;
#X text 133 389 trigger 2 float \; right first init line;
#X obj 330 508 line 0 50;
#X connect 1 0 4 0;
#X connect 2 0 1 0;
#X connect 4 0 5 0;
#X connect 4 0 14 1;
#X connect 5 0 24 0;
#X connect 5 0 25 1;
#X connect 6 0 7 0;
#X connect 6 1 8 0;
#X connect 6 2 9 0;
#X connect 7 0 18 0;
#X connect 7 0 17 0;
#X connect 8 0 12 1;
#X connect 9 0 12 2;
#X connect 10 0 11 0;
#X connect 11 0 39 0;
#X connect 12 0 25 0;
#X connect 13 0 12 0;
#X connect 15 0 10 0;
#X connect 15 1 39 0;
#X connect 17 0 15 0;
#X connect 17 0 34 0;
#X connect 18 0 17 1;
#X connect 19 0 2 0;
#X connect 24 0 6 0;
#X connect 25 0 14 0;
#X connect 34 0 36 0;
#X connect 36 0 39 0;
#X connect 39 0 13 0;
