#N canvas 209 441 450 300 12;
#X obj 97 45 inlet;
#X obj 192 45 inlet;
#X obj 97 226 outlet;
#X obj 97 189 fc_process;
#X obj 97 153 list trim;
#X obj 97 78 list append \$1;
#X obj 97 116 list prepend get property;
#X connect 0 0 5 0;
#X connect 1 0 5 1;
#X connect 3 0 2 0;
#X connect 4 0 3 0;
#X connect 5 0 6 0;
#X connect 6 0 4 0;
