#N canvas 833 418 634 416 12;
#X declare -path ../;
#X obj 57 226 fc_vector;
#X obj 130 312 fc_isVector;
#X floatatom 62 154 5 0 0 0 - - -, f 5;
#X obj 187 231 fc_vectorXYZ;
#X floatatom 179 283 5 0 0 0 - - -, f 5;
#X floatatom 230 283 5 0 0 0 - - -, f 5;
#X floatatom 278 283 5 0 0 0 - - -, f 5;
#X text 80 22 where to find fc_ objects;
#X obj 131 344 tgl 15 0 empty empty empty 17 7 0 10 #fcfcfc #000000
#000000 0 1;
#X obj 23 274 send fc_client;
#X floatatom 102 154 5 0 0 0 - - -, f 5;
#X floatatom 142 154 5 0 0 0 - - -, f 5;
#X obj 268 45 fc_client localhost 8888 8889 0;
#X obj 399 194 fc_process;
#X msg 398 148 get vector;
#X obj 406 319 fc_process;
#X msg 405 273 get vector;
#X obj 405 354 print;
#X obj 267 22 declare -path ../;
#X connect 0 0 1 0;
#X connect 0 0 3 0;
#X connect 0 0 9 0;
#X connect 1 0 8 0;
#X connect 2 0 0 0;
#X connect 3 0 4 0;
#X connect 3 1 5 0;
#X connect 3 2 6 0;
#X connect 10 0 0 1;
#X connect 11 0 0 2;
#X connect 13 0 3 0;
#X connect 14 0 13 0;
#X connect 15 0 17 0;
#X connect 16 0 15 0;
