#N canvas 474 110 974 815 12;
#X declare -path ./FCPD/Pure-Data;
#X obj 110 40 declare -path ./FCPD/Pure-Data;
#X obj 110 70 fc_client localhost 8888 8889 1;
#X floatatom 250 640 5 0 0 0 - - -, f 5;
#X obj 250 700 fc_recompute;
#X obj 250 370 fc_translatePlacement;
#X msg 360 250 set \$1;
#X obj 250 160 bng 15 250 50 0 empty empty New\ Sketch 17 7 0 10 #fcfcfc
#000000 #000000;
#X obj 360 220 list;
#X obj 250 670 fc_setSketchConstraint diameter;
#X obj 250 459 fc_rotatePlacement;
#X obj 480 450 fc_PartLoft;
#X obj 510 360 list cat;
#X obj 250 250 t a a a a a;
#X obj 480 390 list;
#X obj 480 160 bng 15 250 50 0 empty empty make\ Loft 17 7 0 10 #fcfcfc
#000000 #000000;
#X obj 250 280 fc_getObjectProperty Placement;
#X obj 250 490 fc_setObjectProperty Placement;
#X msg 250 190 Sketch;
#X obj 660 160 bng 15 250 50 0 empty empty reset 17 7 0 10 #fcfcfc
#000000 #000000;
#X msg 660 220 set Sketch;
#X msg 560 330 clear;
#X obj 250 220 fc_copy;
#X obj 730 450 list cat;
#X text 520 390 Sketches to loft;
#X text 740 480 All PD created objects;
#X obj 700 480 list;
#X msg 780 420 clear;
#X obj 660 184 t b b b b;
#X text 70 220 copy last created sketch;
#X text 30 340 translation vector;
#X text 50 430 rotation vector;
#X obj 170 430 fc_rotation 30 0 0;
#X obj 250 400 t b a;
#X obj 170 340 fc_vector 0 0 10;
#X obj 250 310 t b a;
#X text 300 640 new diameter;
#X obj 700 509 fc_delete;
#X obj 310 521 loadbang;
#X obj 310 550 timer;
#X msg 310 580 seed \$1;
#X obj 250 520 t b;
#X obj 250 609 random 50;
#X obj 480 419 list prepend Sketch;
#X connect 2 0 8 0;
#X connect 4 0 32 0;
#X connect 5 0 17 0;
#X connect 6 0 17 0;
#X connect 7 0 5 0;
#X connect 8 0 3 0;
#X connect 9 0 16 0;
#X connect 10 0 22 0;
#X connect 11 0 13 1;
#X connect 12 0 15 0;
#X connect 12 1 16 1;
#X connect 12 2 7 0;
#X connect 12 3 8 1;
#X connect 12 4 11 0;
#X connect 12 4 22 0;
#X connect 13 0 42 0;
#X connect 14 0 13 0;
#X connect 15 0 34 0;
#X connect 16 0 40 0;
#X connect 17 0 21 0;
#X connect 18 0 27 0;
#X connect 19 0 17 0;
#X connect 20 0 11 1;
#X connect 21 0 12 0;
#X connect 22 0 25 1;
#X connect 25 0 36 0;
#X connect 26 0 22 1;
#X connect 27 0 19 0;
#X connect 27 1 20 0;
#X connect 27 2 26 0;
#X connect 27 3 25 0;
#X connect 31 0 9 0;
#X connect 32 0 31 0;
#X connect 32 1 9 1;
#X connect 33 0 4 0;
#X connect 34 0 33 0;
#X connect 34 1 4 1;
#X connect 37 0 38 0;
#X connect 38 0 39 0;
#X connect 39 0 41 0;
#X connect 40 0 41 0;
#X connect 41 0 2 0;
#X connect 42 0 10 0;
