#N canvas 470 166 1081 764 12;
#X obj 440 630 netsend;
#X obj 661 296 list append;
#X msg 648 259 send;
#X obj 661 322 list trim;
#X obj 302 241 tgl 15 0 empty empty Connect 17 7 0 10 #fcfcfc #000000
#000000 1 1;
#X msg 261 422 connect \$1 \$2;
#X msg 457 379 send close \, disconnect;
#X obj 313 285 select 1;
#X obj 393 306 bng 15 250 50 0 empty empty empty 17 7 0 10 #fcfcfc
#000000 #000000;
#X obj 261 391 list append \$1 \$2;
#X obj 384 242 bng 15 250 50 0 initrcv empty Activity 17 7 0 10 #fcfcfc
#000000 #000000;
#X obj 635 212 trigger bang anything;
#X obj 387 78 select 1;
#X obj 387 15 loadbang;
#X obj 386 110 metro 1000;
#X obj 278 148 1;
#X text 484 111 retry every sec;
#X text 485 43 autoconnect argument;
#X obj 331 150 != 1;
#X text 62 390 retrieve subpath arguments;
#X obj 387 44 \$4;
#X obj 259 448 trigger bang anything;
#X obj 635 177 receive fc_input;
#X obj 683 582 send fc_output;
#X obj 259 485 list append \$3;
#X msg 280 540 send initrcv \$1;
#X obj 683 542 netreceive \$3;
#X obj 278 178 spigot 1;
#X text 60 510 initial message to inform about callback port;
#X obj 313 319 != 1;
#X obj 260 347 spigot 1;
#X obj 387 193 bang;
#X text 461 347 Close message;
#X text 61 421 Connect message;
#X text 677 147 Incomming message;
#X text 59 210 Change switch \; to follow connection status;
#X text 512 683 open/close doors;
#X msg 126 257 set \$1;
#X obj 446 685 t f f;
#X floatatom 363 680 5 0 0 0 - - -, f 5;
#X obj 280 568 t b a;
#X text 217 680 connection status;
#X text 41 164 door closed if already connected;
#X connect 0 0 38 0;
#X connect 0 0 39 0;
#X connect 1 0 3 0;
#X connect 2 0 1 0;
#X connect 3 0 0 0;
#X connect 3 0 31 0;
#X connect 4 0 7 0;
#X connect 4 0 31 0;
#X connect 5 0 21 0;
#X connect 6 0 0 0;
#X connect 7 0 30 0;
#X connect 7 1 8 0;
#X connect 8 0 6 0;
#X connect 9 0 5 0;
#X connect 11 0 2 0;
#X connect 11 1 1 1;
#X connect 12 0 14 0;
#X connect 13 0 20 0;
#X connect 14 0 15 0;
#X connect 15 0 27 0;
#X connect 18 0 27 1;
#X connect 20 0 12 0;
#X connect 21 0 24 0;
#X connect 21 1 0 0;
#X connect 22 0 11 0;
#X connect 24 0 25 0;
#X connect 25 0 40 0;
#X connect 26 0 23 0;
#X connect 26 0 31 0;
#X connect 27 0 4 0;
#X connect 29 0 30 1;
#X connect 30 0 9 0;
#X connect 31 0 10 0;
#X connect 37 0 4 0;
#X connect 38 0 29 0;
#X connect 38 1 18 0;
#X connect 39 0 37 0;
#X connect 40 0 39 0;
#X connect 40 1 0 0;
#X coords 0 -1 1 1 221 40 1 258 220;
