#N canvas 574 420 450 300 12;
#X obj 68 15 inlet;
#X obj 25 77 list trim;
#X obj 25 108 outlet;
#X obj 25 15 inlet;
#X obj 25 46 list store;
#X connect 0 0 4 1;
#X connect 1 0 2 0;
#X connect 3 0 4 0;
#X connect 4 0 1 0;
